<svg xmlns="http://www.w3.org/2000/svg" viewBox="0 0 48.95 69.93"><defs><style>.cls-1,.cls-2{opacity:0.8;}.cls-2,.cls-3,.cls-4,.cls-5{fill:#fff;}.cls-2,.cls-4,.cls-5{isolation:isolate;}.cls-4{opacity:0.7;}.cls-5{opacity:0.6;}</style></defs><g id="Layer_2" data-name="Layer 2"><g id="Layer_1-2" data-name="Layer 1"><g class="cls-1"><path class="cls-2" d="M26.86,66a2.43,2.43,0,0,0-.39-1.33,2.39,2.39,0,0,0-1.06-.88A2.34,2.34,0,0,0,24,63.64a2.38,2.38,0,0,0-1.22.65,2.3,2.3,0,0,0-.66,1.21,2.33,2.33,0,0,0,.13,1.38A2.28,2.28,0,0,0,23.15,68a2.31,2.31,0,0,0,1.32.41A2.39,2.39,0,0,0,26.86,66Zm7.63-5.51h-.16A7.46,7.46,0,0,0,32,61a6.46,6.46,0,0,0-2.41,1.54,3.26,3.26,0,0,0-1,1.85,2.11,2.11,0,0,0,0,1h.17a4.7,4.7,0,0,0,4.17-2,11.67,11.67,0,0,0,1.51-2.72,1.62,1.62,0,0,0,.1-.18Zm5.33.14c.36-.19.71-.35,1-.54a3.92,3.92,0,0,0,1.82-2.29,5.58,5.58,0,0,0,.21-1.52c0-.81,0-1.61-.05-2.41v-.18a8.63,8.63,0,0,0-2.7,2.4,4,4,0,0,0-.73,3,5.24,5.24,0,0,0,.45,1.54ZM0,57.59l.22.24.69.73A11.8,11.8,0,0,0,2.51,60,4.23,4.23,0,0,0,5.88,61a5.39,5.39,0,0,0,.88-.22c.32-.12.36-.26.23-.58a6.54,6.54,0,0,0-.89-1.48,2.16,2.16,0,0,0-.27-.25,5,5,0,0,0-2.94-1,17.42,17.42,0,0,0-1.77,0A10.43,10.43,0,0,0,0,57.59Zm14.45,2.86.18.43a10.11,10.11,0,0,0,1.53,2.62,4.66,4.66,0,0,0,1.75,1.39,4.59,4.59,0,0,0,2.19.42h.3a2.59,2.59,0,0,0-.14-1.58A4.06,4.06,0,0,0,18.9,62a7.16,7.16,0,0,0-3.29-1.43C15.25,60.5,14.87,60.49,14.45,60.45ZM49,57.61l-.16,0a10,10,0,0,0-2.44-.21,6,6,0,0,0-2,.41,3.38,3.38,0,0,0-1.51,1.07A10.84,10.84,0,0,0,42.1,60c-.27.5-.19.66.35.83A5.31,5.31,0,0,0,43.7,61a2.81,2.81,0,0,0,.71,0,4.67,4.67,0,0,0,2.12-1A21,21,0,0,0,49,57.61Zm-39.78,3c.08-.21.16-.38.23-.57a4.35,4.35,0,0,0,.22-2.26,4.52,4.52,0,0,0-1.1-2.19A10.16,10.16,0,0,0,6.3,53.73H6.16v.63a15.56,15.56,0,0,0,0,2.73,4.11,4.11,0,0,0,.53,1.64,4.83,4.83,0,0,0,2.48,1.88Zm35.45,2.12v-.08c-.22-.1-.43-.22-.66-.32a6.62,6.62,0,0,0-2.75-.47,5.65,5.65,0,0,0-2.18.47,3.79,3.79,0,0,0-1.74,1.4c-.12.2-.12.21.05.38a2.52,2.52,0,0,0,1.06.67,3.78,3.78,0,0,0,2,.08,8.78,8.78,0,0,0,3.16-1.39C43.89,63.25,44.25,63,44.62,62.73ZM11.8,64l-.18-.3A4,4,0,0,0,9.26,62a6.64,6.64,0,0,0-2.59-.17,5.86,5.86,0,0,0-2,.6c-.1,0-.18.11-.28.17a.24.24,0,0,1,.06.08l.14.12a10.22,10.22,0,0,0,2.7,1.64,5.64,5.64,0,0,0,2.53.5,2.7,2.7,0,0,0,1.1-.3A2.63,2.63,0,0,0,11.8,64ZM9.93,58.31v.23a12.85,12.85,0,0,0,.78,2.79,5.41,5.41,0,0,0,1.15,1.72,4.73,4.73,0,0,0,2.24,1.21l.45.09a4.23,4.23,0,0,0,.11-1.7,4.34,4.34,0,0,0-1.42-2.48,7.43,7.43,0,0,0-2.1-1.36c-.37-.18-.79-.33-1.21-.5Zm29.17,0H39a11,11,0,0,0-2,.92,6.5,6.5,0,0,0-1.56,1.25,3.92,3.92,0,0,0-1,3.65l.06.18h.22a4.9,4.9,0,0,0,2.17-1,5.11,5.11,0,0,0,1.55-2.12,13.26,13.26,0,0,0,.67-2.78Zm4.8-.92.81-.32a4.38,4.38,0,0,0,2.48-2.85,10.46,10.46,0,0,0,.34-1.84c.06-.53.1-1.06.14-1.59H47.6a8.93,8.93,0,0,0-2.79,2,4.42,4.42,0,0,0-1,1.67,4.34,4.34,0,0,0-.14,1.93,3.39,3.39,0,0,0,.18,1ZM1.34,50.73V51a14.24,14.24,0,0,0,.15,1.59,8.8,8.8,0,0,0,.4,1.9A4.64,4.64,0,0,0,5.1,57.4a4.5,4.5,0,0,0,.25-2.27A4.44,4.44,0,0,0,4.1,52.66a9,9,0,0,0-2.63-1.87ZM39.76,67V67a11.77,11.77,0,0,0-2.16-1.54,5.13,5.13,0,0,0-2.26-.68,4.75,4.75,0,0,0-3,1,.43.43,0,0,0-.09.1,4.52,4.52,0,0,0,1.85,1.67,5.38,5.38,0,0,0,2.94.34,13,13,0,0,0,2.52-.65l.2-.09ZM9.2,67v.07c.36.12.73.25,1.1.36a8.56,8.56,0,0,0,3.14.39,4.26,4.26,0,0,0,2.89-1.47,2.31,2.31,0,0,0,.4-.58l-.07-.07a4.46,4.46,0,0,0-2-.88,4.57,4.57,0,0,0-2.2.16,7.84,7.84,0,0,0-2.12,1.12c-.38.27-.74.6-1.11.87Z"/><path class="cls-2" d="M33.1,69.89l-.69-.1a7.17,7.17,0,0,1-1.64-.41,4.2,4.2,0,0,1-1.59-1,4.32,4.32,0,0,1-1-1.62c-.08-.2-.14-.41-.21-.63a2.41,2.41,0,0,1,.78-.23,3.9,3.9,0,0,1,1.89.11,4.05,4.05,0,0,1,1.63,1A10,10,0,0,1,34,69.22c.14.23.25.47.38.71Z"/><path class="cls-2" d="M14.53,69.89a12.35,12.35,0,0,1,1.86-2.68A4.06,4.06,0,0,1,20.9,66H21v.12a4.7,4.7,0,0,1-1.8,2.7,5.15,5.15,0,0,1-2,.81c-.39.08-.79.11-1.18.17h-.16Z"/></g><g class="cls-1"><path class="cls-2" d="M22.59,13.73c-1.42,0-2.84.12-4.26.23s-2.77.28-4.16.42a7,7,0,0,0-.9.13v0l.48,1.27.24.07a25.35,25.35,0,0,0,4.24.7c1.07.09,2.15.15,3.23.19s2,0,3,0c1.19,0,2.37-.11,3.56-.18a17.23,17.23,0,0,0,1.89-.17c.79-.1,1.57-.22,2.36-.35.44-.07.87-.17,1.3-.25L34,14.55c-1.51-.23-3-.4-4.55-.54a56.13,56.13,0,0,0-6.86-.28Zm10.33,2.08-1,.18a52.42,52.42,0,0,1-5.59.58,53,53,0,0,1-5.91,0,36.69,36.69,0,0,1-5.33-.6l-.77-.17-.09-.05H32.92Z"/><path class="cls-2" d="M37.78,7.25a2.81,2.81,0,0,0-1.31.63l-.2.16a1,1,0,0,0-.11-.17,1.12,1.12,0,0,0-.64-.42.68.68,0,0,0-.83.36,1.52,1.52,0,0,0-.16,1,.52.52,0,0,0,.49.54.26.26,0,0,1,.17.05.24.24,0,0,1,.1.14l-.4.5a4.23,4.23,0,0,1-1.4,1.19,1.72,1.72,0,0,1-.73.19,1.91,1.91,0,0,1-1.68-1,3,3,0,0,1-.35-1.81.48.48,0,0,1,.05-.17H31a.89.89,0,0,0,.38-.18,1.33,1.33,0,0,0,.1-1.8,1.1,1.1,0,0,0-.78-.34,1,1,0,0,0-.43.09,1,1,0,0,0-.36.25,1.24,1.24,0,0,0-.24.62,1.22,1.22,0,0,0,.12.65c.09.15.2.28.32.45a4.41,4.41,0,0,1-.35.53,3.12,3.12,0,0,1-4.2.65,2,2,0,0,1-.72-.71,2,2,0,0,1-.28-1,.56.56,0,0,1,.05-.38,5.5,5.5,0,0,0,.81.27,1.07,1.07,0,0,0,.43.06,1,1,0,0,0,.42-.14,1,1,0,0,0,.32-.29,1,1,0,0,0,.16-.41,3.12,3.12,0,0,0,.07-1.36,1.18,1.18,0,0,0-.29-.64,1.13,1.13,0,0,0-.6-.36,5.48,5.48,0,0,0-.57-.05.73.73,0,0,1-.36,0A1.78,1.78,0,0,0,25.15,4a3.61,3.61,0,0,0,0-1.31A5.85,5.85,0,0,0,23.87.19L23.66,0l-.07.05a12.21,12.21,0,0,0-1.28,2.18,3.06,3.06,0,0,0-.17,2,.61.61,0,0,1,0,.19h-.2l-.37-.1a1,1,0,0,0-.42,0,.9.9,0,0,0-.39.13.92.92,0,0,0-.31.28,1,1,0,0,0-.17.38,3.15,3.15,0,0,0-.09.42,3.45,3.45,0,0,0,.1,1.43,1,1,0,0,0,.37.54,1,1,0,0,0,.63.19,3.84,3.84,0,0,0,1.07-.22l.33-.1a3.21,3.21,0,0,1-.51,1.4,2.22,2.22,0,0,1-1.92,1,5.12,5.12,0,0,1-2.16-.58,2,2,0,0,1-.64-.5.94.94,0,0,1-.23-.48l.09-.06a1.21,1.21,0,0,0,.44-.74,1.24,1.24,0,0,0-.18-.84,1,1,0,0,0-1-.52,1.76,1.76,0,0,0-1.09.64.73.73,0,0,0-.17.31.82.82,0,0,0,0,.35,2.5,2.5,0,0,0,.19.52.92.92,0,0,0,.32.36.89.89,0,0,0,.45.15h.24a1.82,1.82,0,0,1,0,.33A4.41,4.41,0,0,1,16.32,10a1.65,1.65,0,0,1-.21.42,2.23,2.23,0,0,1-.85.7,2.16,2.16,0,0,1-1.09.2.41.41,0,0,1-.24-.08A11.84,11.84,0,0,1,12.2,9.83a3.4,3.4,0,0,1-.23-.3l.27-.18c.11-.07.23-.12.35-.2a.77.77,0,0,0,.31-.42,1.07,1.07,0,0,0-.65-1.17,1,1,0,0,0-.69,0A1,1,0,0,0,11,8l-.11.17-.14-.11c-.22-.19-.44-.4-.68-.57a1.57,1.57,0,0,0-.64-.22,1.69,1.69,0,0,0-.67,0,.27.27,0,0,0-.11.05.22.22,0,0,0-.07.09.25.25,0,0,0,.13.22h.09A.89.89,0,0,1,9.23,8c.26.31.52.62.77.94a27.22,27.22,0,0,1,2.49,3.88c.27.51.49,1.06.73,1.59.55-.08,1.09-.16,1.64-.22,1.08-.12,2.16-.23,3.25-.33,1.56-.14,3.13-.22,4.7-.25a44,44,0,0,1,4.61.13c1.53.13,3,.27,4.54.43.69.07,1.37.18,2.06.28l-.05.11.05-.11c.2-.43.38-.87.6-1.28.41-.75.82-1.5,1.26-2.23.34-.57.73-1.1,1.09-1.65a4.84,4.84,0,0,1,1-1.12l.63-.59.2-.24A1.78,1.78,0,0,0,37.78,7.25Z"/></g><path class="cls-3" d="M39.6,18.44V30.9q0,4.74-.05,9.48v5.76a7.55,7.55,0,0,1-.68,3A13.12,13.12,0,0,1,36.1,53a18,18,0,0,1-8.6,5.07,14.38,14.38,0,0,1-4.8.43,16.3,16.3,0,0,1-6.6-2,17.47,17.47,0,0,1-5.63-4.84,12,12,0,0,1-2.11-4.35,10.46,10.46,0,0,1-.26-2.43V18.49c.26.05.51.12.77.16.88.12,1.76.25,2.64.34,2.74.27,5.5.34,8.25.4h8.33c1.88,0,3.76-.11,5.65-.21,1.31-.07,2.63-.21,3.94-.35.6-.06,1.19-.21,1.79-.32ZM23.94,31.82h.19a5.05,5.05,0,0,0,2-.64,3.28,3.28,0,0,0,1.17-1,3.36,3.36,0,0,0,.6-1.43A5,5,0,0,0,28,27.29a3.53,3.53,0,0,0-1-2.18,4.21,4.21,0,0,0-1.3-.82A7,7,0,0,0,24,23.87V20.64h-.21c-1.48,0-3,0-4.44-.06H17.77l-1.87-.06-1.21-.05h0l-1.16-.1-.86-.06-1.12-.14L10,19.92c-.22-.05-.44-.12-.69-.19v.35c0,7.72-.07,15.43.05,23.15v1.32a3,3,0,0,0,.06.73c.06.25.08.77.15,1.15a8,8,0,0,0,.26,1.2,10.68,10.68,0,0,0,1,2,18.35,18.35,0,0,0,2,2.56,13.87,13.87,0,0,0,1.79,1.64,16.55,16.55,0,0,0,4,2.24,12.38,12.38,0,0,0,2.45.75c.48.09,1,.16,1.45.23.27,0,.55.07.82.09a1.67,1.67,0,0,0,.63,0Zm9.83,6.37c-.1,0-.18,0-.23.06a.24.24,0,0,1-.14.12.25.25,0,0,1-.19,0,1.65,1.65,0,0,1-.32-.06L32,38.09a3.57,3.57,0,0,0-1.08-.1,4.28,4.28,0,0,0-2.57,1.15A3.92,3.92,0,0,0,27.1,43a4,4,0,0,0,.84,1.82A4,4,0,0,0,29.56,46a3.71,3.71,0,0,0,3.19,0l.47-.2a2.36,2.36,0,0,1,.46-.1.34.34,0,0,1,.22,0,.31.31,0,0,1,.17.15c.06.1.13.08.24,0V43.3H35c0-.07,0-.12-.08-.14s-.08,0-.12,0H31.65a.57.57,0,0,0-.11.16H32.7v1a2.86,2.86,0,0,1-.19,1,1.18,1.18,0,0,1-.41.55,1.19,1.19,0,0,1-.65.23,4.45,4.45,0,0,1-.73,0,1.69,1.69,0,0,1-1-.37,1.73,1.73,0,0,1-.61-.89,4.08,4.08,0,0,1-.27-1.38V40.69a3.09,3.09,0,0,1,.36-1.46,1.73,1.73,0,0,1,.54-.66,1.88,1.88,0,0,1,.78-.34,4.79,4.79,0,0,1,1,0,1.79,1.79,0,0,1,.72.19,2,2,0,0,1,.58.47,3,3,0,0,1,.56.92,5.66,5.66,0,0,1,.2.58c0,.1.08.15.2.1Z"/><path class="cls-4" d="M23.94,31.82v25.3a1.67,1.67,0,0,1-.63,0c-.27,0-.55,0-.82-.09-.48-.07-1-.14-1.45-.23a12.38,12.38,0,0,1-2.45-.75,16.55,16.55,0,0,1-4-2.24,13.58,13.58,0,0,1-1.74-1.65,18.35,18.35,0,0,1-2-2.56,10.68,10.68,0,0,1-1-2,8,8,0,0,1-.26-1.2c-.07-.38-.11-.77-.15-1.15a5.59,5.59,0,0,0-.06-.73V43.2c-.12-7.72,0-15.43-.05-23.15V19.7c.25.07.47.14.69.19l1.52.25,1.12.14.86.06,1.16.1h.05l1.21,0,1.87.06h1.54c1.48,0,3,0,4.44.06H24v3.21H19.77v.1l1,.07v7.6h-.86c-.11,0-.17,0-.11.18ZM16.7,46.1V38.48h1.06c-.06-.08-.07-.13-.11-.15H14.11a.25.25,0,0,1-.1.16h1V46.1h-.87c-.11,0-.16,0-.1.16h7V43.78c-.15-.07-.16,0-.19.12a3.53,3.53,0,0,1-.61,1.3,2.16,2.16,0,0,1-.79.68,2.26,2.26,0,0,1-1,.22Z"/><path class="cls-3" d="M23.94,24.06a2.21,2.21,0,0,1,1,.34,2.31,2.31,0,0,1,.72.77,3.46,3.46,0,0,1,.4,1.3,11.38,11.38,0,0,1,0,2.26,3.73,3.73,0,0,1-.44,1.57,2.28,2.28,0,0,1-.72.82,2.48,2.48,0,0,1-1,.41Z"/><path class="cls-4" d="M23.94,24.06v7.51a4,4,0,0,1-1.51.08V24h.68C23.33,24,23.66,24,23.94,24.06Z"/><path class="cls-5" d="M7.9,18.13a11.29,11.29,0,0,0,2.37.46c1,.11,2.07.21,3.1.29.73.06,1.46.09,2.18.11,1.47,0,2.94.1,4.41.12h6c1.25,0,2.49,0,3.73-.06s2.55-.08,3.83-.15c.89,0,1.78-.12,2.68-.2a23.6,23.6,0,0,0,3.13-.45l.53-.15V46.22a7.75,7.75,0,0,1-.68,2.92A13.23,13.23,0,0,1,37,52.54a18.48,18.48,0,0,1-5.43,4.27,17.14,17.14,0,0,1-5,1.72,14.89,14.89,0,0,1-3.13.2,16.4,16.4,0,0,1-5.6-1.3,18.1,18.1,0,0,1-6.09-4.25,13.76,13.76,0,0,1-3.18-4.55,9.09,9.09,0,0,1-.63-3V43.22q0-9.18-.05-18.34v-6A6.26,6.26,0,0,1,7.9,18.13Zm31.58.32c-.59.11-1.19.26-1.79.32-1.31.14-2.62.28-3.94.35-1.88.1-3.77.17-5.65.21H19.78c-2.76-.06-5.51-.13-8.26-.4-.88-.09-1.76-.22-2.64-.34a4.6,4.6,0,0,1-.77-.16v10.7q0,5.85,0,11.7v4.06a11.47,11.47,0,0,0,.25,2.41,11.84,11.84,0,0,0,2.12,4.35,17,17,0,0,0,5.63,4.84,16.3,16.3,0,0,0,6.59,2,14.38,14.38,0,0,0,4.8-.43A18,18,0,0,0,36.1,53a13.17,13.17,0,0,0,2.66-3.9,7.55,7.55,0,0,0,.68-3V40.35q0-4.74.05-9.48V20.69"/></g></g></svg>